<svg width="84" height="84" viewBox="0 0 84 84" fill="none" xmlns="http://www.w3.org/2000/svg">
<g clip-path="url(#clip0_2_127)">
<path d="M0 0H83.7735V83.7735H0V0Z" fill="url(#paint0_linear_2_127)"/>
<path d="M27.2427 60.9893L27.2505 60.9918L24.4242 65.887C23.3926 67.6739 21.1075 68.2862 19.3206 67.2545C17.5338 66.2229 16.9216 63.9379 17.9532 62.151L20.0352 58.5448L20.235 58.1988C20.5919 57.6857 21.4725 56.8007 23.2339 56.967C23.2339 56.967 27.379 57.4169 27.6789 59.5713C27.679 59.5713 27.7199 60.2803 27.2427 60.9893ZM67.3295 48.486H58.516C57.9158 48.4459 57.6536 48.2315 57.5508 48.1069L57.5442 48.0956L48.1097 31.7545L48.0975 31.7627L47.5316 30.9514C46.6044 29.5334 45.1319 33.1602 45.1319 33.1602C43.3738 37.2016 45.3813 41.7964 46.0814 43.1852L59.1853 65.882C60.2169 67.6689 62.5019 68.2811 64.2888 67.2494C66.0756 66.2179 66.6879 63.9328 65.6563 62.1459L62.3795 56.4705C62.3161 56.333 62.2055 55.9595 62.8775 55.9581H67.3295C69.3928 55.9581 71.0655 54.2854 71.0655 52.2221C71.0655 50.1587 69.3928 48.486 67.3295 48.486ZM50.2109 53.5651C50.2109 53.5651 50.6813 55.958 48.861 55.958H47.0407V55.9581H16.2801C14.2168 55.9581 12.5441 54.2854 12.5441 52.2221C12.5441 50.1587 14.2168 48.486 16.2801 48.486H24.6563C26.0086 48.4077 26.3292 47.627 26.3292 47.627L26.3366 47.6308L37.2703 28.6929L37.2671 28.6923C37.4664 28.3264 37.3004 27.9808 37.2716 27.926L33.6607 21.6719C32.629 19.885 33.2413 17.6001 35.0282 16.5684C36.8151 15.5367 39.0999 16.149 40.1316 17.9359L41.8063 20.8365L43.478 17.941C44.5096 16.1541 46.7946 15.5419 48.5815 16.5736C50.3684 17.6053 50.9806 19.8902 49.9489 21.6771L34.7343 48.0295C34.6678 48.1899 34.6474 48.4417 35.1424 48.486H44.2368L44.2387 48.5746C44.2387 48.5746 49.495 48.6565 50.2109 53.5651Z" fill="white"/>
</g>
<defs>
<linearGradient id="paint0_linear_2_127" x1="41.8867" y1="83.7735" x2="41.8867" y2="0" gradientUnits="userSpaceOnUse">
<stop stop-color="#1D76F2"/>
<stop offset="1" stop-color="#1AC2FB"/>
</linearGradient>
<clipPath id="clip0_2_127">
<rect width="83.7735" height="83.7735" rx="18.0875" fill="white"/>
</clipPath>
</defs>
</svg>
