<svg width="74" height="84" viewBox="0 0 74 84" fill="none" xmlns="http://www.w3.org/2000/svg">
<g clip-path="url(#clip0_2_131)">
<path d="M46.9951 25.572L2.76556 0.321735C2.20978 -0.00060828 1.51057 0.0172997 0.972717 0.339643C0.416935 0.661987 0.0762939 1.23504 0.0762939 1.87973C0.0762939 1.87973 0.0942224 4.20777 0.112151 8.04007L32.3296 40.2207L46.9951 25.572Z" fill="url(#paint0_linear_2_131)"/>
<path d="M0.112671 8.04071C0.166456 21.8657 0.327812 55.4252 0.399526 72.1333L32.348 40.2213L0.112671 8.04071Z" fill="url(#paint1_linear_2_131)"/>
<path d="M72.3105 40.0244L46.9955 25.5726L32.3121 40.2213L48.878 56.7683L72.3284 43.1224C72.8842 42.8001 73.2249 42.2091 73.2249 41.5823C73.2249 40.9377 72.8663 40.3467 72.3105 40.0244Z" fill="url(#paint2_linear_2_131)"/>
<path d="M0.381592 72.1332C0.417449 78.0966 0.435377 81.911 0.435377 81.911C0.435377 82.5557 0.776018 83.1466 1.3318 83.4511C1.88758 83.7734 2.56886 83.7734 3.12465 83.4511L48.896 56.7861L32.3301 40.2391L0.381592 72.1332Z" fill="url(#paint3_linear_2_131)"/>
</g>
<defs>
<linearGradient id="paint0_linear_2_131" x1="0.0762939" y1="20.1627" x2="47.0033" y2="20.1627" gradientUnits="userSpaceOnUse">
<stop stop-color="#63BE6B"/>
<stop offset="0.506" stop-color="#5BBC6A"/>
<stop offset="1" stop-color="#4AB96A"/>
</linearGradient>
<linearGradient id="paint1_linear_2_131" x1="0.104065" y1="40.0947" x2="32.3294" y2="40.0947" gradientUnits="userSpaceOnUse">
<stop stop-color="#3EC6F2"/>
<stop offset="1" stop-color="#45AFE3"/>
</linearGradient>
<linearGradient id="paint2_linear_2_131" x1="32.3293" y1="41.1819" x2="73.2206" y2="41.1819" gradientUnits="userSpaceOnUse">
<stop stop-color="#FAA51A"/>
<stop offset="0.387" stop-color="#FAB716"/>
<stop offset="0.741" stop-color="#FAC412"/>
<stop offset="1" stop-color="#FAC80F"/>
</linearGradient>
<linearGradient id="paint3_linear_2_131" x1="0.38948" y1="61.9653" x2="48.8953" y2="61.9653" gradientUnits="userSpaceOnUse">
<stop stop-color="#EC3B50"/>
<stop offset="1" stop-color="#E7515B"/>
</linearGradient>
<clipPath id="clip0_2_131">
<rect width="73.3018" height="83.7735" fill="white"/>
</clipPath>
</defs>
</svg>
