<svg width="54" height="54" viewBox="0 0 54 54" fill="none" xmlns="http://www.w3.org/2000/svg">
<rect width="53.7536" height="53.7536" rx="26.8768" fill="#FF6838"/>
<path d="M13.0083 35.254V18.9651H9.42468V35.254H13.0083Z" fill="white"/>
<path d="M29.2493 35.254V18.267H25.7122V24.4102C25.2934 23.9138 24.7737 23.4794 24.1531 23.1071C23.5481 22.7348 22.7724 22.5486 21.8261 22.5486C21.0815 22.5486 20.3679 22.6883 19.6853 22.9675C19.0027 23.2467 18.3977 23.6656 17.8702 24.2241C17.3583 24.767 16.9394 25.4419 16.6137 26.2486C16.3034 27.0397 16.1483 27.955 16.1483 28.9944V29.041C16.1483 30.0804 16.3034 31.0034 16.6137 31.8101C16.9394 32.6013 17.366 33.2761 17.8935 33.8346C18.421 34.3775 19.026 34.7886 19.7086 35.0679C20.3911 35.3471 21.097 35.4867 21.8261 35.4867C22.7569 35.4867 23.5248 35.3006 24.1299 34.9283C24.7504 34.5404 25.2778 34.0518 25.7122 33.4623V35.254H29.2493ZM25.7588 29.041C25.7588 29.5529 25.6734 30.0261 25.5028 30.4604C25.3477 30.8793 25.1305 31.2438 24.8512 31.5541C24.5875 31.8489 24.2695 32.0816 23.8972 32.2522C23.5403 32.4073 23.1525 32.4849 22.7337 32.4849C22.3148 32.4849 21.9192 32.4073 21.5469 32.2522C21.1901 32.0816 20.8721 31.8489 20.5928 31.5541C20.3136 31.2438 20.0886 30.8793 19.918 30.4604C19.7629 30.0261 19.6853 29.5529 19.6853 29.041V28.9944C19.6853 28.467 19.7629 27.9938 19.918 27.575C20.0886 27.1561 20.3136 26.7993 20.5928 26.5045C20.8721 26.1943 21.1901 25.9616 21.5469 25.8064C21.9192 25.6358 22.3148 25.5505 22.7337 25.5505C23.1525 25.5505 23.5403 25.6358 23.8972 25.8064C24.2695 25.9616 24.5875 26.1943 24.8512 26.5045C25.1305 26.7993 25.3477 27.1638 25.5028 27.5982C25.6734 28.0171 25.7588 28.4825 25.7588 28.9944V29.041Z" fill="white"/>
<path d="M44.44 30.6699C44.44 29.6925 44.2073 28.9169 43.7419 28.3429C43.292 27.7534 42.6482 27.2414 41.8105 26.807C42.4465 26.4192 42.9507 25.9461 43.323 25.3876C43.6954 24.8291 43.8815 24.1077 43.8815 23.2235C43.8815 22.6029 43.7419 22.0212 43.4627 21.4782C43.1989 20.9197 42.8111 20.4388 42.2992 20.0355C41.8027 19.6321 41.1977 19.3141 40.4841 19.0814C39.786 18.8487 39.0103 18.7324 38.1571 18.7324C37.2884 18.7324 36.5049 18.8487 35.8068 19.0814C35.1087 19.3141 34.5037 19.6321 33.9918 20.0355C33.4954 20.4388 33.1075 20.9197 32.8283 21.4782C32.5646 22.0212 32.4327 22.6029 32.4327 23.2235C32.4327 24.1077 32.6189 24.8291 32.9912 25.3876C33.3635 25.9461 33.8677 26.4192 34.5037 26.807C33.635 27.2104 32.9757 27.7223 32.5258 28.3429C32.0914 28.9479 31.8742 29.7546 31.8742 30.7629C31.8742 31.4766 32.0293 32.1281 32.3396 32.7176C32.6654 33.2916 33.1075 33.788 33.666 34.2069C34.2245 34.6102 34.8838 34.9283 35.6439 35.161C36.4196 35.3781 37.2573 35.4867 38.1571 35.4867C39.0569 35.4867 39.8868 35.3781 40.647 35.161C41.4227 34.9438 42.0897 34.6335 42.6482 34.2302C43.2067 33.8113 43.6411 33.3071 43.9513 32.7176C44.2771 32.1126 44.44 31.43 44.44 30.6699ZM40.4841 23.6191C40.4841 24.2086 40.2747 24.6895 39.8558 25.0618C39.437 25.4341 38.8707 25.6203 38.1571 25.6203C37.4435 25.6203 36.8773 25.4341 36.4584 25.0618C36.0395 24.674 35.8301 24.1853 35.8301 23.5958C35.8301 23.0838 36.0318 22.6417 36.4351 22.2694C36.8385 21.8816 37.4125 21.6876 38.1571 21.6876C38.9017 21.6876 39.4757 21.8816 39.8791 22.2694C40.2824 22.6572 40.4841 23.1071 40.4841 23.6191ZM40.9728 30.4837C40.9728 31.0732 40.7246 31.5619 40.2281 31.9497C39.7317 32.3375 39.0414 32.5315 38.1571 32.5315C37.2728 32.5315 36.5825 32.3375 36.0861 31.9497C35.5897 31.5619 35.3414 31.0732 35.3414 30.4837C35.3414 29.8321 35.6052 29.3357 36.1326 28.9944C36.6601 28.6376 37.3349 28.4592 38.1571 28.4592C38.9793 28.4592 39.6541 28.6376 40.1816 28.9944C40.709 29.3357 40.9728 29.8321 40.9728 30.4837Z" fill="white"/>
</svg>
