<svg width="20" height="21" viewBox="0 0 20 21" fill="none" xmlns="http://www.w3.org/2000/svg">
<path d="M1.31573 12.4586L2.28955 12.2312L1.31573 12.4586ZM1.31573 6.97524L2.28955 7.20258L1.31573 6.97524ZM16.7893 6.97525L17.7631 6.74792L16.7893 6.97525ZM16.7893 12.4586L17.7631 12.6859L16.7893 12.4586ZM11.781 17.491L11.5516 16.5176L11.781 17.491ZM6.324 17.491L6.09459 18.4643L6.324 17.491ZM6.324 1.94286L6.09459 0.969529L6.324 1.94286ZM11.781 1.94286L12.0105 0.969528L11.781 1.94286ZM18.2912 20.4177C18.6808 20.8091 19.3139 20.8107 19.7054 20.4211C20.0969 20.0315 20.0984 19.3983 19.7088 19.0069L18.2912 20.4177ZM2.28955 12.2312C1.90348 10.5775 1.90348 8.85633 2.28955 7.20258L0.341911 6.74791C-0.11397 8.70076 -0.11397 10.7331 0.341911 12.6859L2.28955 12.2312ZM15.8155 7.20258C16.2016 8.85634 16.2016 10.5775 15.8155 12.2312L17.7631 12.6859C18.219 10.7331 18.219 8.70076 17.7631 6.74792L15.8155 7.20258ZM11.5516 16.5176C9.90785 16.9051 8.1972 16.9051 6.55341 16.5176L6.09459 18.4643C8.04012 18.9228 10.0649 18.9228 12.0105 18.4643L11.5516 16.5176ZM6.55341 2.91619C8.1972 2.52875 9.90785 2.52875 11.5516 2.91619L12.0105 0.969528C10.0649 0.510971 8.04012 0.510971 6.09459 0.969529L6.55341 2.91619ZM6.55341 16.5176C4.44008 16.0195 2.78659 14.3604 2.28955 12.2312L0.341911 12.6859C1.01068 15.5507 3.23786 17.791 6.09459 18.4643L6.55341 16.5176ZM12.0105 18.4643C14.8672 17.791 17.0944 15.5507 17.7631 12.6859L15.8155 12.2312C15.3185 14.3604 13.665 16.0195 11.5516 16.5176L12.0105 18.4643ZM11.5516 2.91619C13.665 3.41429 15.3185 5.07339 15.8155 7.20258L17.7631 6.74792C17.0944 3.88311 14.8672 1.64285 12.0105 0.969528L11.5516 2.91619ZM6.09459 0.969529C3.23786 1.64285 1.01068 3.8831 0.341911 6.74791L2.28955 7.20258C2.78659 5.07339 4.44008 3.41429 6.55341 2.91619L6.09459 0.969529ZM14.6263 16.7352L18.2912 20.4177L19.7088 19.0069L16.0439 15.3244L14.6263 16.7352Z" fill="white"/>
</svg>
