<svg width="28" height="30" viewBox="0 0 28 30" fill="none" xmlns="http://www.w3.org/2000/svg">
<path d="M9.73216 7.1722L9.42549 7.90589C8.9304 9.09037 8.80595 10.3982 9.06871 11.6555C9.46965 13.5739 10.9896 15.0556 12.91 15.4002L13.0791 15.4305C13.6882 15.5398 14.3117 15.5398 14.9207 15.4305L15.0898 15.4002C17.0103 15.0556 18.5302 13.5739 18.9312 11.6555C19.1939 10.3982 19.0695 9.09037 18.5744 7.9059L18.2677 7.1722" stroke="#363853" stroke-width="2" stroke-linecap="round"/>
<path d="M26.5302 19.6436C25.6611 23.4838 22.6904 26.501 18.8809 27.4272C15.6794 28.2056 12.3205 28.2056 9.11904 27.4272C5.30959 26.501 2.33889 23.4838 1.46983 19.6436C0.693332 16.2124 0.882179 12.6318 2.01524 9.30234L2.18358 8.80769C3.43031 5.14419 6.5448 2.43989 10.333 1.73159L11.3703 1.53763C13.1085 1.21263 14.8915 1.21263 16.6297 1.53763L17.667 1.73158C21.4552 2.43988 24.5697 5.1442 25.8164 8.80772L25.9848 9.30235C27.1178 12.6318 27.3067 16.2124 26.5302 19.6436Z" stroke="#363853" stroke-width="2"/>
</svg>
