<svg width="13" height="14" viewBox="0 0 13 14" fill="none" xmlns="http://www.w3.org/2000/svg">
<path d="M4.80562 1.1513C5.43985 -0.383766 7.56015 -0.383766 8.19438 1.1513L8.63614 2.22052C8.89588 2.84917 9.46613 3.28498 10.1275 3.3603L11.3603 3.50067C12.9171 3.67795 13.5602 5.64269 12.4232 6.74818L11.3765 7.76585C10.9163 8.21329 10.7129 8.87227 10.8383 9.50994L11.091 10.7954C11.4109 12.4225 9.67609 13.6511 8.30686 12.767L7.48012 12.2333C6.88107 11.8465 6.11893 11.8465 5.51988 12.2333L4.69314 12.767C3.32391 13.6511 1.58911 12.4225 1.909 10.7954L2.16172 9.50994C2.28708 8.87227 2.08374 8.21329 1.62354 7.76585L0.576848 6.74818C-0.560169 5.64269 0.0828505 3.67795 1.63969 3.50067L2.87247 3.3603C3.53387 3.28498 4.10412 2.84917 4.36386 2.22052L4.80562 1.1513Z" fill="#FDD65E"/>
</svg>
